# xmcd
# 
# Track frame offsets:
#     150
#     11925
#     24115
#     38585
#     51825
#     63375
#     77265
#     89225
#     99800
#     112725
#     124782
#     137027
#     151350
#     161717
#     174140
#     182525
#     193550
#     204245
#     215925
#     230735
#     243830
#     259950
#     273082
#     284540
#     303585
#     315210
#     330517
# 
# Disc length: 4588
# 
# Revision: 6
# Processed by: cddbd v1.5.2PL0 Copyright (c) Steve Scherf et al.
# Submitted via: fre:ac v1.0.27
# 
DISCID=6711ea1b
DTITLE=Various Artist - Soul Hits (53 Original Soul Classics) - Disc 1
DYEAR=1994
DGENRE=Soul
TTITLE0=The Drifters - Sweets For My Sweet
TTITLE1=Aretha Franklin - Baby I Love You
TTITLE2=Otis Redding - I've Got Dreams To Remember
TTITLE3=Booker T. and The Mg's - Green Onions
TTITLE4=Wilson Pickett - In The Midnight Hour
TTITLE5=Eddie Floyd - Knock On Wood
TTITLE6=Sam and Dave - Soul Man
TTITLE7=Arthur Conley - Sweet Soul Music
TTITLE8=Percy Sledge - When A Man Loves A Woman
TTITLE9=Otis Redding - (Sittin' On) The Dock Of The Bay
TTITLE10=The Drifters - Under The Boardwalk
TTITLE11=Ray Charles - What'd I Say (Part 1)
TTITLE12=Aretha Franklin - Think
TTITLE13=Solomon Burke - Everybody Needs Somebody To Love
TTITLE14=The Coasters - Yakety Yak
TTITLE15=Wilson Pickett - Land Of A 1,000 Dances
TTITLE16=The Bar-Kays - Soul Finger
TTITLE17=Ray Charles - Hallelujah I Love Her So
TTITLE18=Sam and Dave - When Something Is Wrong With My Baby
TTITLE19=Ben E. King - Spanish Harlem
TTITLE20=Aretha Franklin - I Say A Little Prayer
TTITLE21=Carla Thomas - B.A.B.Y
TTITLE22=Otis Redding - These Arms Of Mine
TTITLE23=The Spinners - Could It Be I'm Falling In Love
TTITLE24=The Drifters - Save The Last Dance For Me
TTITLE25=Persuaders - A Thin Line Between Love And Hate
TTITLE26=Percy Sledge - My Special Prayer
EXTD=
EXTT0=
EXTT1=
EXTT2=
EXTT3=
EXTT4=
EXTT5=
EXTT6=
EXTT7=
EXTT8=
EXTT9=
EXTT10=
EXTT11=
EXTT12=
EXTT13=
EXTT14=
EXTT15=
EXTT16=
EXTT17=
EXTT18=
EXTT19=
EXTT20=
EXTT21=
EXTT22=
EXTT23=
EXTT24=
EXTT25=
EXTT26=
PLAYORDER=
